%TF.GenerationSoftware,KiCad,Pcbnew,6.0.6-3a73a75311~116~ubuntu20.04.1*%
%TF.CreationDate,2022-07-21T05:59:29-04:00*%
%TF.ProjectId,first_project,66697273-745f-4707-926f-6a6563742e6b,rev?*%
%TF.SameCoordinates,PX4c4b400PY8a48640*%
%TF.FileFunction,Soldermask,Top*%
%TF.FilePolarity,Negative*%
%FSLAX46Y46*%
G04 Gerber Fmt 4.6, Leading zero omitted, Abs format (unit mm)*
G04 Created by KiCad (PCBNEW 6.0.6-3a73a75311~116~ubuntu20.04.1) date 2022-07-21 05:59:29*
%MOMM*%
%LPD*%
G01*
G04 APERTURE LIST*
G04 Aperture macros list*
%AMRoundRect*
0 Rectangle with rounded corners*
0 $1 Rounding radius*
0 $2 $3 $4 $5 $6 $7 $8 $9 X,Y pos of 4 corners*
0 Add a 4 corners polygon primitive as box body*
4,1,4,$2,$3,$4,$5,$6,$7,$8,$9,$2,$3,0*
0 Add four circle primitives for the rounded corners*
1,1,$1+$1,$2,$3*
1,1,$1+$1,$4,$5*
1,1,$1+$1,$6,$7*
1,1,$1+$1,$8,$9*
0 Add four rect primitives between the rounded corners*
20,1,$1+$1,$2,$3,$4,$5,0*
20,1,$1+$1,$4,$5,$6,$7,0*
20,1,$1+$1,$6,$7,$8,$9,0*
20,1,$1+$1,$8,$9,$2,$3,0*%
G04 Aperture macros list end*
%ADD10R,1.000000X1.800000*%
%ADD11C,3.200000*%
%ADD12RoundRect,0.243750X-0.243750X-0.456250X0.243750X-0.456250X0.243750X0.456250X-0.243750X0.456250X0*%
%ADD13R,1.600000X1.600000*%
%ADD14O,1.600000X1.600000*%
%ADD15C,2.000000*%
%ADD16R,1.150000X1.400000*%
%ADD17R,1.600000X1.400000*%
%ADD18R,1.800000X1.000000*%
%ADD19O,1.700000X1.700000*%
%ADD20R,1.700000X1.700000*%
%ADD21R,3.000000X3.000000*%
%ADD22C,3.000000*%
%ADD23R,2.200000X1.200000*%
%ADD24R,6.400000X5.800000*%
%ADD25R,1.400000X1.400000*%
%ADD26C,1.400000*%
%ADD27RoundRect,0.500000X0.500000X-1.750000X0.500000X1.750000X-0.500000X1.750000X-0.500000X-1.750000X0*%
%ADD28RoundRect,0.500000X1.500000X0.500000X-1.500000X0.500000X-1.500000X-0.500000X1.500000X-0.500000X0*%
G04 APERTURE END LIST*
D10*
%TO.C,Y1*%
X81270000Y67530000D03*
X78770000Y67530000D03*
%TD*%
D11*
%TO.C,H4*%
X135000000Y5000000D03*
%TD*%
D12*
%TO.C,D7*%
X91782500Y11650000D03*
X93657500Y11650000D03*
%TD*%
%TO.C,D5*%
X76542500Y11650000D03*
X78417500Y11650000D03*
%TD*%
D13*
%TO.C,U4*%
X35580000Y49755000D03*
D14*
X35580000Y47215000D03*
X35580000Y44675000D03*
X35580000Y42135000D03*
X35580000Y39595000D03*
X35580000Y37055000D03*
X35580000Y34515000D03*
X35580000Y31975000D03*
X35580000Y29435000D03*
X35580000Y26895000D03*
X35580000Y24355000D03*
X35580000Y21815000D03*
X43200000Y21815000D03*
X43200000Y24355000D03*
X43200000Y26895000D03*
X43200000Y29435000D03*
X43200000Y31975000D03*
X43200000Y34515000D03*
X43200000Y37055000D03*
X43200000Y39595000D03*
X43200000Y42135000D03*
X43200000Y44675000D03*
X43200000Y47215000D03*
X43200000Y49755000D03*
%TD*%
D15*
%TO.C,TP2*%
X44460000Y59910000D03*
%TD*%
%TO.C,TP6*%
X78750000Y63720000D03*
%TD*%
D16*
%TO.C,C9*%
X46785000Y40225000D03*
X48485000Y40225000D03*
%TD*%
D15*
%TO.C,TP4*%
X24140000Y84040000D03*
%TD*%
D17*
%TO.C,SW1*%
X132280000Y65970000D03*
X124280000Y65970000D03*
X132280000Y61470000D03*
X124280000Y61470000D03*
%TD*%
D16*
%TO.C,C2*%
X75790000Y84040000D03*
X74090000Y84040000D03*
%TD*%
D12*
%TO.C,D8*%
X99402500Y11650000D03*
X101277500Y11650000D03*
%TD*%
D17*
%TO.C,SW2*%
X53160000Y53850000D03*
X61160000Y53850000D03*
X53160000Y58350000D03*
X61160000Y58350000D03*
%TD*%
D12*
%TO.C,D2*%
X53682500Y11650000D03*
X55557500Y11650000D03*
%TD*%
D17*
%TO.C,SW3*%
X68400000Y53850000D03*
X76400000Y53850000D03*
X68400000Y58350000D03*
X76400000Y58350000D03*
%TD*%
D12*
%TO.C,D3*%
X61302500Y11650000D03*
X63177500Y11650000D03*
%TD*%
D16*
%TO.C,C4*%
X117270000Y29430000D03*
X118970000Y29430000D03*
%TD*%
%TO.C,R2*%
X56310000Y70070000D03*
X58010000Y70070000D03*
%TD*%
D18*
%TO.C,Y2*%
X31760000Y75170000D03*
X31760000Y77670000D03*
%TD*%
D16*
%TO.C,R3*%
X112190000Y73880000D03*
X113890000Y73880000D03*
%TD*%
D19*
%TO.C,J1*%
X118120000Y58640000D03*
X118120000Y61180000D03*
X118120000Y63720000D03*
X118120000Y66260000D03*
X118120000Y68800000D03*
D20*
X118120000Y71340000D03*
%TD*%
D16*
%TO.C,C5*%
X84250000Y67530000D03*
X85950000Y67530000D03*
%TD*%
%TO.C,R4*%
X112190000Y68800000D03*
X113890000Y68800000D03*
%TD*%
D13*
%TO.C,U3*%
X35580000Y77680000D03*
D14*
X35580000Y75140000D03*
X35580000Y72600000D03*
X35580000Y70060000D03*
X43200000Y70060000D03*
X43200000Y72600000D03*
X43200000Y75140000D03*
X43200000Y77680000D03*
%TD*%
D16*
%TO.C,C1*%
X117270000Y16730000D03*
X118970000Y16730000D03*
%TD*%
D15*
%TO.C,TP7*%
X16520000Y29430000D03*
%TD*%
D16*
%TO.C,C6*%
X124890000Y56100000D03*
X126590000Y56100000D03*
%TD*%
D12*
%TO.C,D1*%
X48602500Y82770000D03*
X50477500Y82770000D03*
%TD*%
D15*
%TO.C,TP1*%
X113040000Y31970000D03*
%TD*%
D16*
%TO.C,C7*%
X66470000Y67530000D03*
X68170000Y67530000D03*
%TD*%
D11*
%TO.C,H2*%
X135000000Y85000000D03*
%TD*%
D21*
%TO.C,BT1*%
X19059984Y75333686D03*
D22*
X19059984Y54843686D03*
%TD*%
D16*
%TO.C,R1*%
X51660000Y75150000D03*
X49960000Y75150000D03*
%TD*%
D11*
%TO.C,H3*%
X5000000Y5000000D03*
%TD*%
D17*
%TO.C,SW4*%
X83640000Y53850000D03*
X91640000Y53850000D03*
X83640000Y58350000D03*
X91640000Y58350000D03*
%TD*%
D16*
%TO.C,C8*%
X46570000Y37050000D03*
X48270000Y37050000D03*
%TD*%
D17*
%TO.C,SW5*%
X98880000Y53850000D03*
X106880000Y53850000D03*
X98880000Y58350000D03*
X106880000Y58350000D03*
%TD*%
D16*
%TO.C,R10*%
X48270000Y34510000D03*
X46570000Y34510000D03*
%TD*%
D11*
%TO.C,H1*%
X5000000Y85000000D03*
%TD*%
D16*
%TO.C,R13*%
X63090000Y82770000D03*
X61390000Y82770000D03*
%TD*%
%TO.C,R9*%
X66470000Y62450000D03*
X68170000Y62450000D03*
%TD*%
%TO.C,C3*%
X74090000Y67530000D03*
X75790000Y67530000D03*
%TD*%
D15*
%TO.C,TP3*%
X43190000Y84040000D03*
%TD*%
D16*
%TO.C,R12*%
X96960000Y68800000D03*
X95260000Y68800000D03*
%TD*%
D15*
%TO.C,TP5*%
X27950000Y38320000D03*
%TD*%
D23*
%TO.C,U2*%
X116460000Y25360000D03*
D24*
X122760000Y23080000D03*
D23*
X116460000Y20800000D03*
%TD*%
D16*
%TO.C,R5*%
X52500000Y62450000D03*
X54200000Y62450000D03*
%TD*%
D25*
%TO.C,DS1*%
X69860000Y25620000D03*
D26*
X72400000Y25620000D03*
X74940000Y25620000D03*
X77480000Y25620000D03*
X80020000Y25620000D03*
X82560000Y25620000D03*
X85100000Y25620000D03*
X85100000Y40860000D03*
X82560000Y40860000D03*
X80020000Y40860000D03*
X77480000Y40860000D03*
X74940000Y40860000D03*
X72400000Y40860000D03*
X69860000Y40860000D03*
%TD*%
D20*
%TO.C,J3*%
X100340000Y78960000D03*
D19*
X102880000Y78960000D03*
X100340000Y76420000D03*
X102880000Y76420000D03*
X100340000Y73880000D03*
X102880000Y73880000D03*
%TD*%
D16*
%TO.C,R14*%
X58010000Y82770000D03*
X56310000Y82770000D03*
%TD*%
%TO.C,R11*%
X82560000Y62450000D03*
X84260000Y62450000D03*
%TD*%
D12*
%TO.C,D6*%
X84162500Y11650000D03*
X86037500Y11650000D03*
%TD*%
%TO.C,D4*%
X68922500Y11650000D03*
X70797500Y11650000D03*
%TD*%
D13*
%TO.C,U1*%
X58440000Y72620000D03*
D14*
X60980000Y72620000D03*
X63520000Y72620000D03*
X66060000Y72620000D03*
X68600000Y72620000D03*
X71140000Y72620000D03*
X73680000Y72620000D03*
X76220000Y72620000D03*
X78760000Y72620000D03*
X81300000Y72620000D03*
X83840000Y72620000D03*
X86380000Y72620000D03*
X88920000Y72620000D03*
X91460000Y72620000D03*
X91460000Y80240000D03*
X88920000Y80240000D03*
X86380000Y80240000D03*
X83840000Y80240000D03*
X81300000Y80240000D03*
X78760000Y80240000D03*
X76220000Y80240000D03*
X73680000Y80240000D03*
X71140000Y80240000D03*
X68600000Y80240000D03*
X66060000Y80240000D03*
X63520000Y80240000D03*
X60980000Y80240000D03*
X58440000Y80240000D03*
%TD*%
D27*
%TO.C,J2*%
X119080000Y48480000D03*
D28*
X116780000Y43180000D03*
X113080000Y45680000D03*
%TD*%
M02*
