M48
; DRILL file {KiCad 6.0.6-3a73a75311~116~ubuntu20.04.1} date Thu 21 Jul 2022 11:58:29 PM EDT
; FORMAT={-:-/ absolute / inch / decimal}
; #@! TF.CreationDate,2022-07-21T23:58:29-04:00
; #@! TF.GenerationSoftware,Kicad,Pcbnew,6.0.6-3a73a75311~116~ubuntu20.04.1
; #@! TF.FileFunction,MixedPlating,1,2
FMAT,2
INCH
; #@! TA.AperFunction,Plated,PTH,ViaDrill
T1C0.0160
; #@! TA.AperFunction,Plated,PTH,ComponentDrill
T2C0.0315
; #@! TA.AperFunction,Plated,PTH,ComponentDrill
T3C0.0354
; #@! TA.AperFunction,Plated,PTH,ComponentDrill
T4C0.0394
; #@! TA.AperFunction,Plated,PTH,ComponentDrill
T5C0.0591
; #@! TA.AperFunction,NonPlated,NPTH,ComponentDrill
T6C0.1260
%
G90
G05
T1
X1.2004Y0.6087
X1.2504Y1.4587
X1.5004Y1.4587
X1.6004Y1.3587
X1.7754Y1.5837
X1.8004Y1.0087
X1.8504Y1.1587
X1.9004Y0.6587
X1.9504Y1.5587
X1.9504Y1.4587
X2.0004Y2.1587
X2.1004Y3.2587
X2.1504Y1.1587
X2.2004Y2.6587
X2.2504Y2.5087
X2.4504Y2.7087
X2.5004Y3.0087
X2.5004Y0.1587
X2.5504Y2.1587
X2.6004Y2.1587
X2.6504Y3.2587
X2.7504Y2.7087
X2.7504Y1.3087
X2.8504Y3.0587
X2.9504Y1.3587
X3.0754Y3.3087
X3.1004Y2.1587
X3.1004Y0.5587
X3.2254Y3.2587
X3.2504Y2.2087
X3.4004Y1.8087
X3.4004Y0.3587
X3.4504Y1.2587
X3.5504Y1.8087
X3.7004Y2.2087
X3.7004Y0.6087
X3.7504Y3.1587
X3.8004Y2.1587
X3.8504Y2.9587
X4.3004Y2.9087
X4.3004Y2.1587
X4.4004Y0.9587
X4.5004Y2.5087
X4.5504Y0.9087
X4.8504Y2.7087
X5.2754Y2.6337
T2
X1.4008Y3.0583
X1.4008Y2.9583
X1.4008Y2.8583
X1.4008Y2.7583
X1.4008Y1.9589
X1.4008Y1.8589
X1.4008Y1.7589
X1.4008Y1.6589
X1.4008Y1.5589
X1.4008Y1.4589
X1.4008Y1.3589
X1.4008Y1.2589
X1.4008Y1.1589
X1.4008Y1.0589
X1.4008Y0.9589
X1.4008Y0.8589
X1.7008Y3.0583
X1.7008Y2.9583
X1.7008Y2.8583
X1.7008Y2.7583
X1.7008Y1.9589
X1.7008Y1.8589
X1.7008Y1.7589
X1.7008Y1.6589
X1.7008Y1.5589
X1.7008Y1.4589
X1.7008Y1.3589
X1.7008Y1.2589
X1.7008Y1.1589
X1.7008Y1.0589
X1.7008Y0.9589
X1.7008Y0.8589
X2.3008Y3.1591
X2.3008Y2.8591
X2.4008Y3.1591
X2.4008Y2.8591
X2.5008Y3.1591
X2.5008Y2.8591
X2.6008Y3.1591
X2.6008Y2.8591
X2.7008Y3.1591
X2.7008Y2.8591
X2.8008Y3.1591
X2.8008Y2.8591
X2.9008Y3.1591
X2.9008Y2.8591
X3.0008Y3.1591
X3.0008Y2.8591
X3.1008Y3.1591
X3.1008Y2.8591
X3.2008Y3.1591
X3.2008Y2.8591
X3.3008Y3.1591
X3.3008Y2.8591
X3.4008Y3.1591
X3.4008Y2.8591
X3.5008Y3.1591
X3.5008Y2.8591
X3.6008Y3.1591
X3.6008Y2.8591
T3
X2.7504Y1.6087
X2.7504Y1.0087
X2.8504Y1.6087
X2.8504Y1.0087
X2.9504Y1.6087
X2.9504Y1.0087
X3.0504Y1.6087
X3.0504Y1.0087
X3.1504Y1.6087
X3.1504Y1.0087
X3.2504Y1.6087
X3.2504Y1.0087
X3.3504Y1.6087
X3.3504Y1.0087
T4
X0.9504Y3.2087
X0.9504Y0.9087
X1.1004Y1.3587
X1.4504Y2.4587
X1.7004Y3.3087
X1.7004Y2.4587
X3.9504Y3.1087
X3.9504Y3.0087
X3.9504Y2.9087
X4.0504Y3.1087
X4.0504Y3.0087
X4.0504Y2.9087
X4.4504Y1.2587
X4.6504Y2.8087
X4.6504Y2.7087
X4.6504Y2.6087
X4.6504Y2.5087
X4.6504Y2.4087
X4.6504Y2.3087
T5
X0.7504Y2.9659
X0.7504Y2.1592
T6
X0.1969Y3.3465
X0.1969Y0.1969
X5.315Y3.3465
X5.315Y0.1969
T4
G00X4.4913Y1.7984
M15
G01X4.4126Y1.7984
M16
G05
G00X4.637Y1.7
M15
G01X4.5583Y1.7
M16
G05
G00X4.6882Y1.8594
M15
G01X4.6882Y1.9579
M16
G05
T0
M30
