%TF.GenerationSoftware,KiCad,Pcbnew,6.0.6-3a73a75311~116~ubuntu20.04.1*%
%TF.CreationDate,2022-07-21T05:59:29-04:00*%
%TF.ProjectId,first_project,66697273-745f-4707-926f-6a6563742e6b,rev?*%
%TF.SameCoordinates,PX4c4b400PY8a48640*%
%TF.FileFunction,Legend,Top*%
%TF.FilePolarity,Positive*%
%FSLAX46Y46*%
G04 Gerber Fmt 4.6, Leading zero omitted, Abs format (unit mm)*
G04 Created by KiCad (PCBNEW 6.0.6-3a73a75311~116~ubuntu20.04.1) date 2022-07-21 05:59:29*
%MOMM*%
%LPD*%
G01*
G04 APERTURE LIST*
G04 Aperture macros list*
%AMRoundRect*
0 Rectangle with rounded corners*
0 $1 Rounding radius*
0 $2 $3 $4 $5 $6 $7 $8 $9 X,Y pos of 4 corners*
0 Add a 4 corners polygon primitive as box body*
4,1,4,$2,$3,$4,$5,$6,$7,$8,$9,$2,$3,0*
0 Add four circle primitives for the rounded corners*
1,1,$1+$1,$2,$3*
1,1,$1+$1,$4,$5*
1,1,$1+$1,$6,$7*
1,1,$1+$1,$8,$9*
0 Add four rect primitives between the rounded corners*
20,1,$1+$1,$2,$3,$4,$5,0*
20,1,$1+$1,$4,$5,$6,$7,0*
20,1,$1+$1,$6,$7,$8,$9,0*
20,1,$1+$1,$8,$9,$2,$3,0*%
G04 Aperture macros list end*
%ADD10C,0.150000*%
%ADD11C,0.120000*%
%ADD12C,0.250000*%
%ADD13R,1.000000X1.800000*%
%ADD14C,3.200000*%
%ADD15RoundRect,0.243750X-0.243750X-0.456250X0.243750X-0.456250X0.243750X0.456250X-0.243750X0.456250X0*%
%ADD16R,1.600000X1.600000*%
%ADD17O,1.600000X1.600000*%
%ADD18C,2.000000*%
%ADD19R,1.150000X1.400000*%
%ADD20R,1.600000X1.400000*%
%ADD21R,1.800000X1.000000*%
%ADD22O,1.700000X1.700000*%
%ADD23R,1.700000X1.700000*%
%ADD24R,3.000000X3.000000*%
%ADD25C,3.000000*%
%ADD26R,2.200000X1.200000*%
%ADD27R,6.400000X5.800000*%
%ADD28R,1.400000X1.400000*%
%ADD29C,1.400000*%
%ADD30RoundRect,0.500000X0.500000X-1.750000X0.500000X1.750000X-0.500000X1.750000X-0.500000X-1.750000X0*%
%ADD31RoundRect,0.500000X1.500000X0.500000X-1.500000X0.500000X-1.500000X-0.500000X1.500000X-0.500000X0*%
G04 APERTURE END LIST*
D10*
%TO.C,Y1*%
X79543809Y65603810D02*
X79543809Y65127620D01*
X79210476Y66127620D02*
X79543809Y65603810D01*
X79877142Y66127620D01*
X80734285Y65127620D02*
X80162857Y65127620D01*
X80448571Y65127620D02*
X80448571Y66127620D01*
X80353333Y65984762D01*
X80258095Y65889524D01*
X80162857Y65841905D01*
%TO.C,H4*%
X134238095Y8747620D02*
X134238095Y9747620D01*
X134238095Y9271429D02*
X134809523Y9271429D01*
X134809523Y8747620D02*
X134809523Y9747620D01*
X135714285Y9414286D02*
X135714285Y8747620D01*
X135476190Y9795239D02*
X135238095Y9080953D01*
X135857142Y9080953D01*
%TO.C,D7*%
X91981904Y12847620D02*
X91981904Y13847620D01*
X92220000Y13847620D01*
X92362857Y13800000D01*
X92458095Y13704762D01*
X92505714Y13609524D01*
X92553333Y13419048D01*
X92553333Y13276191D01*
X92505714Y13085715D01*
X92458095Y12990477D01*
X92362857Y12895239D01*
X92220000Y12847620D01*
X91981904Y12847620D01*
X92886666Y13847620D02*
X93553333Y13847620D01*
X93124761Y12847620D01*
%TO.C,D5*%
X76741904Y12847620D02*
X76741904Y13847620D01*
X76980000Y13847620D01*
X77122857Y13800000D01*
X77218095Y13704762D01*
X77265714Y13609524D01*
X77313333Y13419048D01*
X77313333Y13276191D01*
X77265714Y13085715D01*
X77218095Y12990477D01*
X77122857Y12895239D01*
X76980000Y12847620D01*
X76741904Y12847620D01*
X78218095Y13847620D02*
X77741904Y13847620D01*
X77694285Y13371429D01*
X77741904Y13419048D01*
X77837142Y13466667D01*
X78075238Y13466667D01*
X78170476Y13419048D01*
X78218095Y13371429D01*
X78265714Y13276191D01*
X78265714Y13038096D01*
X78218095Y12942858D01*
X78170476Y12895239D01*
X78075238Y12847620D01*
X77837142Y12847620D01*
X77741904Y12895239D01*
X77694285Y12942858D01*
%TO.C,U4*%
X38628095Y52632620D02*
X38628095Y51823096D01*
X38675714Y51727858D01*
X38723333Y51680239D01*
X38818571Y51632620D01*
X39009047Y51632620D01*
X39104285Y51680239D01*
X39151904Y51727858D01*
X39199523Y51823096D01*
X39199523Y52632620D01*
X40104285Y52299286D02*
X40104285Y51632620D01*
X39866190Y52680239D02*
X39628095Y51965953D01*
X40247142Y51965953D01*
%TO.C,TP2*%
X43198095Y62455620D02*
X43769523Y62455620D01*
X43483809Y61455620D02*
X43483809Y62455620D01*
X44102857Y61455620D02*
X44102857Y62455620D01*
X44483809Y62455620D01*
X44579047Y62408000D01*
X44626666Y62360381D01*
X44674285Y62265143D01*
X44674285Y62122286D01*
X44626666Y62027048D01*
X44579047Y61979429D01*
X44483809Y61931810D01*
X44102857Y61931810D01*
X45055238Y62360381D02*
X45102857Y62408000D01*
X45198095Y62455620D01*
X45436190Y62455620D01*
X45531428Y62408000D01*
X45579047Y62360381D01*
X45626666Y62265143D01*
X45626666Y62169905D01*
X45579047Y62027048D01*
X45007619Y61455620D01*
X45626666Y61455620D01*
%TO.C,TP6*%
X73678095Y64267620D02*
X74249523Y64267620D01*
X73963809Y63267620D02*
X73963809Y64267620D01*
X74582857Y63267620D02*
X74582857Y64267620D01*
X74963809Y64267620D01*
X75059047Y64220000D01*
X75106666Y64172381D01*
X75154285Y64077143D01*
X75154285Y63934286D01*
X75106666Y63839048D01*
X75059047Y63791429D01*
X74963809Y63743810D01*
X74582857Y63743810D01*
X76011428Y64267620D02*
X75820952Y64267620D01*
X75725714Y64220000D01*
X75678095Y64172381D01*
X75582857Y64029524D01*
X75535238Y63839048D01*
X75535238Y63458096D01*
X75582857Y63362858D01*
X75630476Y63315239D01*
X75725714Y63267620D01*
X75916190Y63267620D01*
X76011428Y63315239D01*
X76059047Y63362858D01*
X76106666Y63458096D01*
X76106666Y63696191D01*
X76059047Y63791429D01*
X76011428Y63839048D01*
X75916190Y63886667D01*
X75725714Y63886667D01*
X75630476Y63839048D01*
X75582857Y63791429D01*
X75535238Y63696191D01*
%TO.C,C9*%
X47468333Y41517858D02*
X47420714Y41470239D01*
X47277857Y41422620D01*
X47182619Y41422620D01*
X47039761Y41470239D01*
X46944523Y41565477D01*
X46896904Y41660715D01*
X46849285Y41851191D01*
X46849285Y41994048D01*
X46896904Y42184524D01*
X46944523Y42279762D01*
X47039761Y42375000D01*
X47182619Y42422620D01*
X47277857Y42422620D01*
X47420714Y42375000D01*
X47468333Y42327381D01*
X47944523Y41422620D02*
X48135000Y41422620D01*
X48230238Y41470239D01*
X48277857Y41517858D01*
X48373095Y41660715D01*
X48420714Y41851191D01*
X48420714Y42232143D01*
X48373095Y42327381D01*
X48325476Y42375000D01*
X48230238Y42422620D01*
X48039761Y42422620D01*
X47944523Y42375000D01*
X47896904Y42327381D01*
X47849285Y42232143D01*
X47849285Y41994048D01*
X47896904Y41898810D01*
X47944523Y41851191D01*
X48039761Y41803572D01*
X48230238Y41803572D01*
X48325476Y41851191D01*
X48373095Y41898810D01*
X48420714Y41994048D01*
%TO.C,TP4*%
X22878095Y86585620D02*
X23449523Y86585620D01*
X23163809Y85585620D02*
X23163809Y86585620D01*
X23782857Y85585620D02*
X23782857Y86585620D01*
X24163809Y86585620D01*
X24259047Y86538000D01*
X24306666Y86490381D01*
X24354285Y86395143D01*
X24354285Y86252286D01*
X24306666Y86157048D01*
X24259047Y86109429D01*
X24163809Y86061810D01*
X23782857Y86061810D01*
X25211428Y86252286D02*
X25211428Y85585620D01*
X24973333Y86633239D02*
X24735238Y85918953D01*
X25354285Y85918953D01*
%TO.C,SW1*%
X126946666Y67615239D02*
X127089523Y67567620D01*
X127327619Y67567620D01*
X127422857Y67615239D01*
X127470476Y67662858D01*
X127518095Y67758096D01*
X127518095Y67853334D01*
X127470476Y67948572D01*
X127422857Y67996191D01*
X127327619Y68043810D01*
X127137142Y68091429D01*
X127041904Y68139048D01*
X126994285Y68186667D01*
X126946666Y68281905D01*
X126946666Y68377143D01*
X126994285Y68472381D01*
X127041904Y68520000D01*
X127137142Y68567620D01*
X127375238Y68567620D01*
X127518095Y68520000D01*
X127851428Y68567620D02*
X128089523Y67567620D01*
X128280000Y68281905D01*
X128470476Y67567620D01*
X128708571Y68567620D01*
X129613333Y67567620D02*
X129041904Y67567620D01*
X129327619Y67567620D02*
X129327619Y68567620D01*
X129232380Y68424762D01*
X129137142Y68329524D01*
X129041904Y68281905D01*
%TO.C,C2*%
X74773333Y82032858D02*
X74725714Y81985239D01*
X74582857Y81937620D01*
X74487619Y81937620D01*
X74344761Y81985239D01*
X74249523Y82080477D01*
X74201904Y82175715D01*
X74154285Y82366191D01*
X74154285Y82509048D01*
X74201904Y82699524D01*
X74249523Y82794762D01*
X74344761Y82890000D01*
X74487619Y82937620D01*
X74582857Y82937620D01*
X74725714Y82890000D01*
X74773333Y82842381D01*
X75154285Y82842381D02*
X75201904Y82890000D01*
X75297142Y82937620D01*
X75535238Y82937620D01*
X75630476Y82890000D01*
X75678095Y82842381D01*
X75725714Y82747143D01*
X75725714Y82651905D01*
X75678095Y82509048D01*
X75106666Y81937620D01*
X75725714Y81937620D01*
%TO.C,D8*%
X99601904Y12847620D02*
X99601904Y13847620D01*
X99840000Y13847620D01*
X99982857Y13800000D01*
X100078095Y13704762D01*
X100125714Y13609524D01*
X100173333Y13419048D01*
X100173333Y13276191D01*
X100125714Y13085715D01*
X100078095Y12990477D01*
X99982857Y12895239D01*
X99840000Y12847620D01*
X99601904Y12847620D01*
X100744761Y13419048D02*
X100649523Y13466667D01*
X100601904Y13514286D01*
X100554285Y13609524D01*
X100554285Y13657143D01*
X100601904Y13752381D01*
X100649523Y13800000D01*
X100744761Y13847620D01*
X100935238Y13847620D01*
X101030476Y13800000D01*
X101078095Y13752381D01*
X101125714Y13657143D01*
X101125714Y13609524D01*
X101078095Y13514286D01*
X101030476Y13466667D01*
X100935238Y13419048D01*
X100744761Y13419048D01*
X100649523Y13371429D01*
X100601904Y13323810D01*
X100554285Y13228572D01*
X100554285Y13038096D01*
X100601904Y12942858D01*
X100649523Y12895239D01*
X100744761Y12847620D01*
X100935238Y12847620D01*
X101030476Y12895239D01*
X101078095Y12942858D01*
X101125714Y13038096D01*
X101125714Y13228572D01*
X101078095Y13323810D01*
X101030476Y13371429D01*
X100935238Y13419048D01*
%TO.C,SW2*%
X55826666Y51395239D02*
X55969523Y51347620D01*
X56207619Y51347620D01*
X56302857Y51395239D01*
X56350476Y51442858D01*
X56398095Y51538096D01*
X56398095Y51633334D01*
X56350476Y51728572D01*
X56302857Y51776191D01*
X56207619Y51823810D01*
X56017142Y51871429D01*
X55921904Y51919048D01*
X55874285Y51966667D01*
X55826666Y52061905D01*
X55826666Y52157143D01*
X55874285Y52252381D01*
X55921904Y52300000D01*
X56017142Y52347620D01*
X56255238Y52347620D01*
X56398095Y52300000D01*
X56731428Y52347620D02*
X56969523Y51347620D01*
X57160000Y52061905D01*
X57350476Y51347620D01*
X57588571Y52347620D01*
X57921904Y52252381D02*
X57969523Y52300000D01*
X58064761Y52347620D01*
X58302857Y52347620D01*
X58398095Y52300000D01*
X58445714Y52252381D01*
X58493333Y52157143D01*
X58493333Y52061905D01*
X58445714Y51919048D01*
X57874285Y51347620D01*
X58493333Y51347620D01*
%TO.C,D2*%
X53881904Y12847620D02*
X53881904Y13847620D01*
X54120000Y13847620D01*
X54262857Y13800000D01*
X54358095Y13704762D01*
X54405714Y13609524D01*
X54453333Y13419048D01*
X54453333Y13276191D01*
X54405714Y13085715D01*
X54358095Y12990477D01*
X54262857Y12895239D01*
X54120000Y12847620D01*
X53881904Y12847620D01*
X54834285Y13752381D02*
X54881904Y13800000D01*
X54977142Y13847620D01*
X55215238Y13847620D01*
X55310476Y13800000D01*
X55358095Y13752381D01*
X55405714Y13657143D01*
X55405714Y13561905D01*
X55358095Y13419048D01*
X54786666Y12847620D01*
X55405714Y12847620D01*
%TO.C,SW3*%
X71066666Y51395239D02*
X71209523Y51347620D01*
X71447619Y51347620D01*
X71542857Y51395239D01*
X71590476Y51442858D01*
X71638095Y51538096D01*
X71638095Y51633334D01*
X71590476Y51728572D01*
X71542857Y51776191D01*
X71447619Y51823810D01*
X71257142Y51871429D01*
X71161904Y51919048D01*
X71114285Y51966667D01*
X71066666Y52061905D01*
X71066666Y52157143D01*
X71114285Y52252381D01*
X71161904Y52300000D01*
X71257142Y52347620D01*
X71495238Y52347620D01*
X71638095Y52300000D01*
X71971428Y52347620D02*
X72209523Y51347620D01*
X72400000Y52061905D01*
X72590476Y51347620D01*
X72828571Y52347620D01*
X73114285Y52347620D02*
X73733333Y52347620D01*
X73400000Y51966667D01*
X73542857Y51966667D01*
X73638095Y51919048D01*
X73685714Y51871429D01*
X73733333Y51776191D01*
X73733333Y51538096D01*
X73685714Y51442858D01*
X73638095Y51395239D01*
X73542857Y51347620D01*
X73257142Y51347620D01*
X73161904Y51395239D01*
X73114285Y51442858D01*
%TO.C,D3*%
X61501904Y12847620D02*
X61501904Y13847620D01*
X61740000Y13847620D01*
X61882857Y13800000D01*
X61978095Y13704762D01*
X62025714Y13609524D01*
X62073333Y13419048D01*
X62073333Y13276191D01*
X62025714Y13085715D01*
X61978095Y12990477D01*
X61882857Y12895239D01*
X61740000Y12847620D01*
X61501904Y12847620D01*
X62406666Y13847620D02*
X63025714Y13847620D01*
X62692380Y13466667D01*
X62835238Y13466667D01*
X62930476Y13419048D01*
X62978095Y13371429D01*
X63025714Y13276191D01*
X63025714Y13038096D01*
X62978095Y12942858D01*
X62930476Y12895239D01*
X62835238Y12847620D01*
X62549523Y12847620D01*
X62454285Y12895239D01*
X62406666Y12942858D01*
%TO.C,C4*%
X117953333Y30722858D02*
X117905714Y30675239D01*
X117762857Y30627620D01*
X117667619Y30627620D01*
X117524761Y30675239D01*
X117429523Y30770477D01*
X117381904Y30865715D01*
X117334285Y31056191D01*
X117334285Y31199048D01*
X117381904Y31389524D01*
X117429523Y31484762D01*
X117524761Y31580000D01*
X117667619Y31627620D01*
X117762857Y31627620D01*
X117905714Y31580000D01*
X117953333Y31532381D01*
X118810476Y31294286D02*
X118810476Y30627620D01*
X118572380Y31675239D02*
X118334285Y30960953D01*
X118953333Y30960953D01*
%TO.C,R2*%
X56993333Y67077620D02*
X56660000Y67553810D01*
X56421904Y67077620D02*
X56421904Y68077620D01*
X56802857Y68077620D01*
X56898095Y68030000D01*
X56945714Y67982381D01*
X56993333Y67887143D01*
X56993333Y67744286D01*
X56945714Y67649048D01*
X56898095Y67601429D01*
X56802857Y67553810D01*
X56421904Y67553810D01*
X57374285Y67982381D02*
X57421904Y68030000D01*
X57517142Y68077620D01*
X57755238Y68077620D01*
X57850476Y68030000D01*
X57898095Y67982381D01*
X57945714Y67887143D01*
X57945714Y67791905D01*
X57898095Y67649048D01*
X57326666Y67077620D01*
X57945714Y67077620D01*
%TO.C,Y2*%
X29786190Y75943810D02*
X30262380Y75943810D01*
X29262380Y75610477D02*
X29786190Y75943810D01*
X29262380Y76277143D01*
X29357619Y76562858D02*
X29310000Y76610477D01*
X29262380Y76705715D01*
X29262380Y76943810D01*
X29310000Y77039048D01*
X29357619Y77086667D01*
X29452857Y77134286D01*
X29548095Y77134286D01*
X29690952Y77086667D01*
X30262380Y76515239D01*
X30262380Y77134286D01*
%TO.C,R3*%
X112873333Y75077620D02*
X112540000Y75553810D01*
X112301904Y75077620D02*
X112301904Y76077620D01*
X112682857Y76077620D01*
X112778095Y76030000D01*
X112825714Y75982381D01*
X112873333Y75887143D01*
X112873333Y75744286D01*
X112825714Y75649048D01*
X112778095Y75601429D01*
X112682857Y75553810D01*
X112301904Y75553810D01*
X113206666Y76077620D02*
X113825714Y76077620D01*
X113492380Y75696667D01*
X113635238Y75696667D01*
X113730476Y75649048D01*
X113778095Y75601429D01*
X113825714Y75506191D01*
X113825714Y75268096D01*
X113778095Y75172858D01*
X113730476Y75125239D01*
X113635238Y75077620D01*
X113349523Y75077620D01*
X113254285Y75125239D01*
X113206666Y75172858D01*
%TO.C,J1*%
X117786666Y74217620D02*
X117786666Y73503334D01*
X117739047Y73360477D01*
X117643809Y73265239D01*
X117500952Y73217620D01*
X117405714Y73217620D01*
X118786666Y73217620D02*
X118215238Y73217620D01*
X118500952Y73217620D02*
X118500952Y74217620D01*
X118405714Y74074762D01*
X118310476Y73979524D01*
X118215238Y73931905D01*
%TO.C,C5*%
X84933333Y68822858D02*
X84885714Y68775239D01*
X84742857Y68727620D01*
X84647619Y68727620D01*
X84504761Y68775239D01*
X84409523Y68870477D01*
X84361904Y68965715D01*
X84314285Y69156191D01*
X84314285Y69299048D01*
X84361904Y69489524D01*
X84409523Y69584762D01*
X84504761Y69680000D01*
X84647619Y69727620D01*
X84742857Y69727620D01*
X84885714Y69680000D01*
X84933333Y69632381D01*
X85838095Y69727620D02*
X85361904Y69727620D01*
X85314285Y69251429D01*
X85361904Y69299048D01*
X85457142Y69346667D01*
X85695238Y69346667D01*
X85790476Y69299048D01*
X85838095Y69251429D01*
X85885714Y69156191D01*
X85885714Y68918096D01*
X85838095Y68822858D01*
X85790476Y68775239D01*
X85695238Y68727620D01*
X85457142Y68727620D01*
X85361904Y68775239D01*
X85314285Y68822858D01*
%TO.C,R4*%
X112873333Y69997620D02*
X112540000Y70473810D01*
X112301904Y69997620D02*
X112301904Y70997620D01*
X112682857Y70997620D01*
X112778095Y70950000D01*
X112825714Y70902381D01*
X112873333Y70807143D01*
X112873333Y70664286D01*
X112825714Y70569048D01*
X112778095Y70521429D01*
X112682857Y70473810D01*
X112301904Y70473810D01*
X113730476Y70664286D02*
X113730476Y69997620D01*
X113492380Y71045239D02*
X113254285Y70330953D01*
X113873333Y70330953D01*
%TO.C,U3*%
X38628095Y80557620D02*
X38628095Y79748096D01*
X38675714Y79652858D01*
X38723333Y79605239D01*
X38818571Y79557620D01*
X39009047Y79557620D01*
X39104285Y79605239D01*
X39151904Y79652858D01*
X39199523Y79748096D01*
X39199523Y80557620D01*
X39580476Y80557620D02*
X40199523Y80557620D01*
X39866190Y80176667D01*
X40009047Y80176667D01*
X40104285Y80129048D01*
X40151904Y80081429D01*
X40199523Y79986191D01*
X40199523Y79748096D01*
X40151904Y79652858D01*
X40104285Y79605239D01*
X40009047Y79557620D01*
X39723333Y79557620D01*
X39628095Y79605239D01*
X39580476Y79652858D01*
%TO.C,C1*%
X117953333Y18022858D02*
X117905714Y17975239D01*
X117762857Y17927620D01*
X117667619Y17927620D01*
X117524761Y17975239D01*
X117429523Y18070477D01*
X117381904Y18165715D01*
X117334285Y18356191D01*
X117334285Y18499048D01*
X117381904Y18689524D01*
X117429523Y18784762D01*
X117524761Y18880000D01*
X117667619Y18927620D01*
X117762857Y18927620D01*
X117905714Y18880000D01*
X117953333Y18832381D01*
X118905714Y17927620D02*
X118334285Y17927620D01*
X118620000Y17927620D02*
X118620000Y18927620D01*
X118524761Y18784762D01*
X118429523Y18689524D01*
X118334285Y18641905D01*
%TO.C,TP7*%
X15258095Y31975620D02*
X15829523Y31975620D01*
X15543809Y30975620D02*
X15543809Y31975620D01*
X16162857Y30975620D02*
X16162857Y31975620D01*
X16543809Y31975620D01*
X16639047Y31928000D01*
X16686666Y31880381D01*
X16734285Y31785143D01*
X16734285Y31642286D01*
X16686666Y31547048D01*
X16639047Y31499429D01*
X16543809Y31451810D01*
X16162857Y31451810D01*
X17067619Y31975620D02*
X17734285Y31975620D01*
X17305714Y30975620D01*
%TO.C,C6*%
X125573333Y57392858D02*
X125525714Y57345239D01*
X125382857Y57297620D01*
X125287619Y57297620D01*
X125144761Y57345239D01*
X125049523Y57440477D01*
X125001904Y57535715D01*
X124954285Y57726191D01*
X124954285Y57869048D01*
X125001904Y58059524D01*
X125049523Y58154762D01*
X125144761Y58250000D01*
X125287619Y58297620D01*
X125382857Y58297620D01*
X125525714Y58250000D01*
X125573333Y58202381D01*
X126430476Y58297620D02*
X126240000Y58297620D01*
X126144761Y58250000D01*
X126097142Y58202381D01*
X126001904Y58059524D01*
X125954285Y57869048D01*
X125954285Y57488096D01*
X126001904Y57392858D01*
X126049523Y57345239D01*
X126144761Y57297620D01*
X126335238Y57297620D01*
X126430476Y57345239D01*
X126478095Y57392858D01*
X126525714Y57488096D01*
X126525714Y57726191D01*
X126478095Y57821429D01*
X126430476Y57869048D01*
X126335238Y57916667D01*
X126144761Y57916667D01*
X126049523Y57869048D01*
X126001904Y57821429D01*
X125954285Y57726191D01*
%TO.C,D1*%
X48801904Y83967620D02*
X48801904Y84967620D01*
X49040000Y84967620D01*
X49182857Y84920000D01*
X49278095Y84824762D01*
X49325714Y84729524D01*
X49373333Y84539048D01*
X49373333Y84396191D01*
X49325714Y84205715D01*
X49278095Y84110477D01*
X49182857Y84015239D01*
X49040000Y83967620D01*
X48801904Y83967620D01*
X50325714Y83967620D02*
X49754285Y83967620D01*
X50040000Y83967620D02*
X50040000Y84967620D01*
X49944761Y84824762D01*
X49849523Y84729524D01*
X49754285Y84681905D01*
%TO.C,TP1*%
X111778095Y34515620D02*
X112349523Y34515620D01*
X112063809Y33515620D02*
X112063809Y34515620D01*
X112682857Y33515620D02*
X112682857Y34515620D01*
X113063809Y34515620D01*
X113159047Y34468000D01*
X113206666Y34420381D01*
X113254285Y34325143D01*
X113254285Y34182286D01*
X113206666Y34087048D01*
X113159047Y34039429D01*
X113063809Y33991810D01*
X112682857Y33991810D01*
X114206666Y33515620D02*
X113635238Y33515620D01*
X113920952Y33515620D02*
X113920952Y34515620D01*
X113825714Y34372762D01*
X113730476Y34277524D01*
X113635238Y34229905D01*
%TO.C,C7*%
X67153333Y68822858D02*
X67105714Y68775239D01*
X66962857Y68727620D01*
X66867619Y68727620D01*
X66724761Y68775239D01*
X66629523Y68870477D01*
X66581904Y68965715D01*
X66534285Y69156191D01*
X66534285Y69299048D01*
X66581904Y69489524D01*
X66629523Y69584762D01*
X66724761Y69680000D01*
X66867619Y69727620D01*
X66962857Y69727620D01*
X67105714Y69680000D01*
X67153333Y69632381D01*
X67486666Y69727620D02*
X68153333Y69727620D01*
X67724761Y68727620D01*
%TO.C,H2*%
X134238095Y88747620D02*
X134238095Y89747620D01*
X134238095Y89271429D02*
X134809523Y89271429D01*
X134809523Y88747620D02*
X134809523Y89747620D01*
X135238095Y89652381D02*
X135285714Y89700000D01*
X135380952Y89747620D01*
X135619047Y89747620D01*
X135714285Y89700000D01*
X135761904Y89652381D01*
X135809523Y89557143D01*
X135809523Y89461905D01*
X135761904Y89319048D01*
X135190476Y88747620D01*
X135809523Y88747620D01*
%TO.C,BT1*%
X23488555Y75797972D02*
X23536174Y75940829D01*
X23583793Y75988448D01*
X23679031Y76036067D01*
X23821888Y76036067D01*
X23917126Y75988448D01*
X23964745Y75940829D01*
X24012364Y75845591D01*
X24012364Y75464639D01*
X23012364Y75464639D01*
X23012364Y75797972D01*
X23059984Y75893210D01*
X23107603Y75940829D01*
X23202841Y75988448D01*
X23298079Y75988448D01*
X23393317Y75940829D01*
X23440936Y75893210D01*
X23488555Y75797972D01*
X23488555Y75464639D01*
X23012364Y76321782D02*
X23012364Y76893210D01*
X24012364Y76607496D02*
X23012364Y76607496D01*
X24012364Y77750353D02*
X24012364Y77178925D01*
X24012364Y77464639D02*
X23012364Y77464639D01*
X23155222Y77369401D01*
X23250460Y77274163D01*
X23298079Y77178925D01*
X19167126Y72012258D02*
X19167126Y73155115D01*
X19738555Y72583686D02*
X18595698Y72583686D01*
%TO.C,R1*%
X50643333Y73047620D02*
X50310000Y73523810D01*
X50071904Y73047620D02*
X50071904Y74047620D01*
X50452857Y74047620D01*
X50548095Y74000000D01*
X50595714Y73952381D01*
X50643333Y73857143D01*
X50643333Y73714286D01*
X50595714Y73619048D01*
X50548095Y73571429D01*
X50452857Y73523810D01*
X50071904Y73523810D01*
X51595714Y73047620D02*
X51024285Y73047620D01*
X51310000Y73047620D02*
X51310000Y74047620D01*
X51214761Y73904762D01*
X51119523Y73809524D01*
X51024285Y73761905D01*
%TO.C,H3*%
X4238095Y8747620D02*
X4238095Y9747620D01*
X4238095Y9271429D02*
X4809523Y9271429D01*
X4809523Y8747620D02*
X4809523Y9747620D01*
X5190476Y9747620D02*
X5809523Y9747620D01*
X5476190Y9366667D01*
X5619047Y9366667D01*
X5714285Y9319048D01*
X5761904Y9271429D01*
X5809523Y9176191D01*
X5809523Y8938096D01*
X5761904Y8842858D01*
X5714285Y8795239D01*
X5619047Y8747620D01*
X5333333Y8747620D01*
X5238095Y8795239D01*
X5190476Y8842858D01*
%TO.C,SW4*%
X86306666Y51395239D02*
X86449523Y51347620D01*
X86687619Y51347620D01*
X86782857Y51395239D01*
X86830476Y51442858D01*
X86878095Y51538096D01*
X86878095Y51633334D01*
X86830476Y51728572D01*
X86782857Y51776191D01*
X86687619Y51823810D01*
X86497142Y51871429D01*
X86401904Y51919048D01*
X86354285Y51966667D01*
X86306666Y52061905D01*
X86306666Y52157143D01*
X86354285Y52252381D01*
X86401904Y52300000D01*
X86497142Y52347620D01*
X86735238Y52347620D01*
X86878095Y52300000D01*
X87211428Y52347620D02*
X87449523Y51347620D01*
X87640000Y52061905D01*
X87830476Y51347620D01*
X88068571Y52347620D01*
X88878095Y52014286D02*
X88878095Y51347620D01*
X88640000Y52395239D02*
X88401904Y51680953D01*
X89020952Y51680953D01*
%TO.C,C8*%
X47253333Y38342858D02*
X47205714Y38295239D01*
X47062857Y38247620D01*
X46967619Y38247620D01*
X46824761Y38295239D01*
X46729523Y38390477D01*
X46681904Y38485715D01*
X46634285Y38676191D01*
X46634285Y38819048D01*
X46681904Y39009524D01*
X46729523Y39104762D01*
X46824761Y39200000D01*
X46967619Y39247620D01*
X47062857Y39247620D01*
X47205714Y39200000D01*
X47253333Y39152381D01*
X47824761Y38819048D02*
X47729523Y38866667D01*
X47681904Y38914286D01*
X47634285Y39009524D01*
X47634285Y39057143D01*
X47681904Y39152381D01*
X47729523Y39200000D01*
X47824761Y39247620D01*
X48015238Y39247620D01*
X48110476Y39200000D01*
X48158095Y39152381D01*
X48205714Y39057143D01*
X48205714Y39009524D01*
X48158095Y38914286D01*
X48110476Y38866667D01*
X48015238Y38819048D01*
X47824761Y38819048D01*
X47729523Y38771429D01*
X47681904Y38723810D01*
X47634285Y38628572D01*
X47634285Y38438096D01*
X47681904Y38342858D01*
X47729523Y38295239D01*
X47824761Y38247620D01*
X48015238Y38247620D01*
X48110476Y38295239D01*
X48158095Y38342858D01*
X48205714Y38438096D01*
X48205714Y38628572D01*
X48158095Y38723810D01*
X48110476Y38771429D01*
X48015238Y38819048D01*
%TO.C,SW5*%
X101546666Y51395239D02*
X101689523Y51347620D01*
X101927619Y51347620D01*
X102022857Y51395239D01*
X102070476Y51442858D01*
X102118095Y51538096D01*
X102118095Y51633334D01*
X102070476Y51728572D01*
X102022857Y51776191D01*
X101927619Y51823810D01*
X101737142Y51871429D01*
X101641904Y51919048D01*
X101594285Y51966667D01*
X101546666Y52061905D01*
X101546666Y52157143D01*
X101594285Y52252381D01*
X101641904Y52300000D01*
X101737142Y52347620D01*
X101975238Y52347620D01*
X102118095Y52300000D01*
X102451428Y52347620D02*
X102689523Y51347620D01*
X102880000Y52061905D01*
X103070476Y51347620D01*
X103308571Y52347620D01*
X104165714Y52347620D02*
X103689523Y52347620D01*
X103641904Y51871429D01*
X103689523Y51919048D01*
X103784761Y51966667D01*
X104022857Y51966667D01*
X104118095Y51919048D01*
X104165714Y51871429D01*
X104213333Y51776191D01*
X104213333Y51538096D01*
X104165714Y51442858D01*
X104118095Y51395239D01*
X104022857Y51347620D01*
X103784761Y51347620D01*
X103689523Y51395239D01*
X103641904Y51442858D01*
%TO.C,R10*%
X46777142Y32407620D02*
X46443809Y32883810D01*
X46205714Y32407620D02*
X46205714Y33407620D01*
X46586666Y33407620D01*
X46681904Y33360000D01*
X46729523Y33312381D01*
X46777142Y33217143D01*
X46777142Y33074286D01*
X46729523Y32979048D01*
X46681904Y32931429D01*
X46586666Y32883810D01*
X46205714Y32883810D01*
X47729523Y32407620D02*
X47158095Y32407620D01*
X47443809Y32407620D02*
X47443809Y33407620D01*
X47348571Y33264762D01*
X47253333Y33169524D01*
X47158095Y33121905D01*
X48348571Y33407620D02*
X48443809Y33407620D01*
X48539047Y33360000D01*
X48586666Y33312381D01*
X48634285Y33217143D01*
X48681904Y33026667D01*
X48681904Y32788572D01*
X48634285Y32598096D01*
X48586666Y32502858D01*
X48539047Y32455239D01*
X48443809Y32407620D01*
X48348571Y32407620D01*
X48253333Y32455239D01*
X48205714Y32502858D01*
X48158095Y32598096D01*
X48110476Y32788572D01*
X48110476Y33026667D01*
X48158095Y33217143D01*
X48205714Y33312381D01*
X48253333Y33360000D01*
X48348571Y33407620D01*
%TO.C,H1*%
X4238095Y88747620D02*
X4238095Y89747620D01*
X4238095Y89271429D02*
X4809523Y89271429D01*
X4809523Y88747620D02*
X4809523Y89747620D01*
X5809523Y88747620D02*
X5238095Y88747620D01*
X5523809Y88747620D02*
X5523809Y89747620D01*
X5428571Y89604762D01*
X5333333Y89509524D01*
X5238095Y89461905D01*
%TO.C,R13*%
X61597142Y83967620D02*
X61263809Y84443810D01*
X61025714Y83967620D02*
X61025714Y84967620D01*
X61406666Y84967620D01*
X61501904Y84920000D01*
X61549523Y84872381D01*
X61597142Y84777143D01*
X61597142Y84634286D01*
X61549523Y84539048D01*
X61501904Y84491429D01*
X61406666Y84443810D01*
X61025714Y84443810D01*
X62549523Y83967620D02*
X61978095Y83967620D01*
X62263809Y83967620D02*
X62263809Y84967620D01*
X62168571Y84824762D01*
X62073333Y84729524D01*
X61978095Y84681905D01*
X62882857Y84967620D02*
X63501904Y84967620D01*
X63168571Y84586667D01*
X63311428Y84586667D01*
X63406666Y84539048D01*
X63454285Y84491429D01*
X63501904Y84396191D01*
X63501904Y84158096D01*
X63454285Y84062858D01*
X63406666Y84015239D01*
X63311428Y83967620D01*
X63025714Y83967620D01*
X62930476Y84015239D01*
X62882857Y84062858D01*
%TO.C,R9*%
X67153333Y63647620D02*
X66820000Y64123810D01*
X66581904Y63647620D02*
X66581904Y64647620D01*
X66962857Y64647620D01*
X67058095Y64600000D01*
X67105714Y64552381D01*
X67153333Y64457143D01*
X67153333Y64314286D01*
X67105714Y64219048D01*
X67058095Y64171429D01*
X66962857Y64123810D01*
X66581904Y64123810D01*
X67629523Y63647620D02*
X67820000Y63647620D01*
X67915238Y63695239D01*
X67962857Y63742858D01*
X68058095Y63885715D01*
X68105714Y64076191D01*
X68105714Y64457143D01*
X68058095Y64552381D01*
X68010476Y64600000D01*
X67915238Y64647620D01*
X67724761Y64647620D01*
X67629523Y64600000D01*
X67581904Y64552381D01*
X67534285Y64457143D01*
X67534285Y64219048D01*
X67581904Y64123810D01*
X67629523Y64076191D01*
X67724761Y64028572D01*
X67915238Y64028572D01*
X68010476Y64076191D01*
X68058095Y64123810D01*
X68105714Y64219048D01*
%TO.C,C3*%
X74773333Y68822858D02*
X74725714Y68775239D01*
X74582857Y68727620D01*
X74487619Y68727620D01*
X74344761Y68775239D01*
X74249523Y68870477D01*
X74201904Y68965715D01*
X74154285Y69156191D01*
X74154285Y69299048D01*
X74201904Y69489524D01*
X74249523Y69584762D01*
X74344761Y69680000D01*
X74487619Y69727620D01*
X74582857Y69727620D01*
X74725714Y69680000D01*
X74773333Y69632381D01*
X75106666Y69727620D02*
X75725714Y69727620D01*
X75392380Y69346667D01*
X75535238Y69346667D01*
X75630476Y69299048D01*
X75678095Y69251429D01*
X75725714Y69156191D01*
X75725714Y68918096D01*
X75678095Y68822858D01*
X75630476Y68775239D01*
X75535238Y68727620D01*
X75249523Y68727620D01*
X75154285Y68775239D01*
X75106666Y68822858D01*
%TO.C,TP3*%
X41928095Y86585620D02*
X42499523Y86585620D01*
X42213809Y85585620D02*
X42213809Y86585620D01*
X42832857Y85585620D02*
X42832857Y86585620D01*
X43213809Y86585620D01*
X43309047Y86538000D01*
X43356666Y86490381D01*
X43404285Y86395143D01*
X43404285Y86252286D01*
X43356666Y86157048D01*
X43309047Y86109429D01*
X43213809Y86061810D01*
X42832857Y86061810D01*
X43737619Y86585620D02*
X44356666Y86585620D01*
X44023333Y86204667D01*
X44166190Y86204667D01*
X44261428Y86157048D01*
X44309047Y86109429D01*
X44356666Y86014191D01*
X44356666Y85776096D01*
X44309047Y85680858D01*
X44261428Y85633239D01*
X44166190Y85585620D01*
X43880476Y85585620D01*
X43785238Y85633239D01*
X43737619Y85680858D01*
%TO.C,R12*%
X95467142Y66697620D02*
X95133809Y67173810D01*
X94895714Y66697620D02*
X94895714Y67697620D01*
X95276666Y67697620D01*
X95371904Y67650000D01*
X95419523Y67602381D01*
X95467142Y67507143D01*
X95467142Y67364286D01*
X95419523Y67269048D01*
X95371904Y67221429D01*
X95276666Y67173810D01*
X94895714Y67173810D01*
X96419523Y66697620D02*
X95848095Y66697620D01*
X96133809Y66697620D02*
X96133809Y67697620D01*
X96038571Y67554762D01*
X95943333Y67459524D01*
X95848095Y67411905D01*
X96800476Y67602381D02*
X96848095Y67650000D01*
X96943333Y67697620D01*
X97181428Y67697620D01*
X97276666Y67650000D01*
X97324285Y67602381D01*
X97371904Y67507143D01*
X97371904Y67411905D01*
X97324285Y67269048D01*
X96752857Y66697620D01*
X97371904Y66697620D01*
%TO.C,TP5*%
X26688095Y40865620D02*
X27259523Y40865620D01*
X26973809Y39865620D02*
X26973809Y40865620D01*
X27592857Y39865620D02*
X27592857Y40865620D01*
X27973809Y40865620D01*
X28069047Y40818000D01*
X28116666Y40770381D01*
X28164285Y40675143D01*
X28164285Y40532286D01*
X28116666Y40437048D01*
X28069047Y40389429D01*
X27973809Y40341810D01*
X27592857Y40341810D01*
X29069047Y40865620D02*
X28592857Y40865620D01*
X28545238Y40389429D01*
X28592857Y40437048D01*
X28688095Y40484667D01*
X28926190Y40484667D01*
X29021428Y40437048D01*
X29069047Y40389429D01*
X29116666Y40294191D01*
X29116666Y40056096D01*
X29069047Y39960858D01*
X29021428Y39913239D01*
X28926190Y39865620D01*
X28688095Y39865620D01*
X28592857Y39913239D01*
X28545238Y39960858D01*
%TO.C,U2*%
X119898095Y28127620D02*
X119898095Y27318096D01*
X119945714Y27222858D01*
X119993333Y27175239D01*
X120088571Y27127620D01*
X120279047Y27127620D01*
X120374285Y27175239D01*
X120421904Y27222858D01*
X120469523Y27318096D01*
X120469523Y28127620D01*
X120898095Y28032381D02*
X120945714Y28080000D01*
X121040952Y28127620D01*
X121279047Y28127620D01*
X121374285Y28080000D01*
X121421904Y28032381D01*
X121469523Y27937143D01*
X121469523Y27841905D01*
X121421904Y27699048D01*
X120850476Y27127620D01*
X121469523Y27127620D01*
%TO.C,R5*%
X53183333Y63647620D02*
X52850000Y64123810D01*
X52611904Y63647620D02*
X52611904Y64647620D01*
X52992857Y64647620D01*
X53088095Y64600000D01*
X53135714Y64552381D01*
X53183333Y64457143D01*
X53183333Y64314286D01*
X53135714Y64219048D01*
X53088095Y64171429D01*
X52992857Y64123810D01*
X52611904Y64123810D01*
X54088095Y64647620D02*
X53611904Y64647620D01*
X53564285Y64171429D01*
X53611904Y64219048D01*
X53707142Y64266667D01*
X53945238Y64266667D01*
X54040476Y64219048D01*
X54088095Y64171429D01*
X54135714Y64076191D01*
X54135714Y63838096D01*
X54088095Y63742858D01*
X54040476Y63695239D01*
X53945238Y63647620D01*
X53707142Y63647620D01*
X53611904Y63695239D01*
X53564285Y63742858D01*
%TO.C,DS1*%
X51907380Y23950596D02*
X50907380Y23950596D01*
X50907380Y24188691D01*
X50955000Y24331548D01*
X51050238Y24426786D01*
X51145476Y24474405D01*
X51335952Y24522024D01*
X51478809Y24522024D01*
X51669285Y24474405D01*
X51764523Y24426786D01*
X51859761Y24331548D01*
X51907380Y24188691D01*
X51907380Y23950596D01*
X51859761Y24902977D02*
X51907380Y25045834D01*
X51907380Y25283929D01*
X51859761Y25379167D01*
X51812142Y25426786D01*
X51716904Y25474405D01*
X51621666Y25474405D01*
X51526428Y25426786D01*
X51478809Y25379167D01*
X51431190Y25283929D01*
X51383571Y25093453D01*
X51335952Y24998215D01*
X51288333Y24950596D01*
X51193095Y24902977D01*
X51097857Y24902977D01*
X51002619Y24950596D01*
X50955000Y24998215D01*
X50907380Y25093453D01*
X50907380Y25331548D01*
X50955000Y25474405D01*
X51907380Y26426786D02*
X51907380Y25855358D01*
X51907380Y26141072D02*
X50907380Y26141072D01*
X51050238Y26045834D01*
X51145476Y25950596D01*
X51193095Y25855358D01*
%TO.C,J3*%
X101276666Y81837620D02*
X101276666Y81123334D01*
X101229047Y80980477D01*
X101133809Y80885239D01*
X100990952Y80837620D01*
X100895714Y80837620D01*
X101657619Y81837620D02*
X102276666Y81837620D01*
X101943333Y81456667D01*
X102086190Y81456667D01*
X102181428Y81409048D01*
X102229047Y81361429D01*
X102276666Y81266191D01*
X102276666Y81028096D01*
X102229047Y80932858D01*
X102181428Y80885239D01*
X102086190Y80837620D01*
X101800476Y80837620D01*
X101705238Y80885239D01*
X101657619Y80932858D01*
%TO.C,R14*%
X56517142Y83967620D02*
X56183809Y84443810D01*
X55945714Y83967620D02*
X55945714Y84967620D01*
X56326666Y84967620D01*
X56421904Y84920000D01*
X56469523Y84872381D01*
X56517142Y84777143D01*
X56517142Y84634286D01*
X56469523Y84539048D01*
X56421904Y84491429D01*
X56326666Y84443810D01*
X55945714Y84443810D01*
X57469523Y83967620D02*
X56898095Y83967620D01*
X57183809Y83967620D02*
X57183809Y84967620D01*
X57088571Y84824762D01*
X56993333Y84729524D01*
X56898095Y84681905D01*
X58326666Y84634286D02*
X58326666Y83967620D01*
X58088571Y85015239D02*
X57850476Y84300953D01*
X58469523Y84300953D01*
%TO.C,R11*%
X82767142Y63647620D02*
X82433809Y64123810D01*
X82195714Y63647620D02*
X82195714Y64647620D01*
X82576666Y64647620D01*
X82671904Y64600000D01*
X82719523Y64552381D01*
X82767142Y64457143D01*
X82767142Y64314286D01*
X82719523Y64219048D01*
X82671904Y64171429D01*
X82576666Y64123810D01*
X82195714Y64123810D01*
X83719523Y63647620D02*
X83148095Y63647620D01*
X83433809Y63647620D02*
X83433809Y64647620D01*
X83338571Y64504762D01*
X83243333Y64409524D01*
X83148095Y64361905D01*
X84671904Y63647620D02*
X84100476Y63647620D01*
X84386190Y63647620D02*
X84386190Y64647620D01*
X84290952Y64504762D01*
X84195714Y64409524D01*
X84100476Y64361905D01*
%TO.C,D6*%
X84361904Y12847620D02*
X84361904Y13847620D01*
X84600000Y13847620D01*
X84742857Y13800000D01*
X84838095Y13704762D01*
X84885714Y13609524D01*
X84933333Y13419048D01*
X84933333Y13276191D01*
X84885714Y13085715D01*
X84838095Y12990477D01*
X84742857Y12895239D01*
X84600000Y12847620D01*
X84361904Y12847620D01*
X85790476Y13847620D02*
X85600000Y13847620D01*
X85504761Y13800000D01*
X85457142Y13752381D01*
X85361904Y13609524D01*
X85314285Y13419048D01*
X85314285Y13038096D01*
X85361904Y12942858D01*
X85409523Y12895239D01*
X85504761Y12847620D01*
X85695238Y12847620D01*
X85790476Y12895239D01*
X85838095Y12942858D01*
X85885714Y13038096D01*
X85885714Y13276191D01*
X85838095Y13371429D01*
X85790476Y13419048D01*
X85695238Y13466667D01*
X85504761Y13466667D01*
X85409523Y13419048D01*
X85361904Y13371429D01*
X85314285Y13276191D01*
%TO.C,D4*%
X69121904Y12847620D02*
X69121904Y13847620D01*
X69360000Y13847620D01*
X69502857Y13800000D01*
X69598095Y13704762D01*
X69645714Y13609524D01*
X69693333Y13419048D01*
X69693333Y13276191D01*
X69645714Y13085715D01*
X69598095Y12990477D01*
X69502857Y12895239D01*
X69360000Y12847620D01*
X69121904Y12847620D01*
X70550476Y13514286D02*
X70550476Y12847620D01*
X70312380Y13895239D02*
X70074285Y13180953D01*
X70693333Y13180953D01*
%TO.C,U1*%
X55562380Y75668096D02*
X56371904Y75668096D01*
X56467142Y75715715D01*
X56514761Y75763334D01*
X56562380Y75858572D01*
X56562380Y76049048D01*
X56514761Y76144286D01*
X56467142Y76191905D01*
X56371904Y76239524D01*
X55562380Y76239524D01*
X56562380Y77239524D02*
X56562380Y76668096D01*
X56562380Y76953810D02*
X55562380Y76953810D01*
X55705238Y76858572D01*
X55800476Y76763334D01*
X55848095Y76668096D01*
D11*
%TO.C,Y1*%
X81970000Y66630000D02*
X81970000Y68430000D01*
X80570000Y68480000D02*
X79470000Y68480000D01*
X80570000Y66580000D02*
X79470000Y66580000D01*
%TO.C,D7*%
X93720000Y12610000D02*
X91035000Y12610000D01*
X91035000Y12610000D02*
X91035000Y10690000D01*
X91035000Y10690000D02*
X93720000Y10690000D01*
%TO.C,D5*%
X78480000Y12610000D02*
X75795000Y12610000D01*
X75795000Y12610000D02*
X75795000Y10690000D01*
X75795000Y10690000D02*
X78480000Y10690000D01*
%TO.C,U4*%
X38390000Y51085000D02*
X36740000Y51085000D01*
X36740000Y20485000D02*
X42040000Y20485000D01*
X42040000Y51085000D02*
X40390000Y51085000D01*
X36740000Y51085000D02*
X36740000Y20485000D01*
X42040000Y20485000D02*
X42040000Y51085000D01*
X38390000Y51085000D02*
G75*
G03*
X40390000Y51085000I1000000J0D01*
G01*
%TO.C,TP2*%
X45660000Y59910000D02*
G75*
G03*
X45660000Y59910000I-1200000J0D01*
G01*
%TO.C,TP6*%
X79950000Y63720000D02*
G75*
G03*
X79950000Y63720000I-1200000J0D01*
G01*
%TO.C,TP4*%
X25340000Y84040000D02*
G75*
G03*
X25340000Y84040000I-1200000J0D01*
G01*
%TO.C,SW1*%
X123180000Y67020000D02*
X124180000Y67020000D01*
X123180000Y66020000D02*
X123180000Y67020000D01*
X125180000Y65020000D02*
X125180000Y62420000D01*
X131380000Y65020000D02*
X131380000Y62420000D01*
X131280000Y60470000D02*
X125280000Y60470000D01*
X131180000Y66970000D02*
X125380000Y66970000D01*
%TO.C,D8*%
X101340000Y12610000D02*
X98655000Y12610000D01*
X98655000Y12610000D02*
X98655000Y10690000D01*
X98655000Y10690000D02*
X101340000Y10690000D01*
%TO.C,SW2*%
X62260000Y52800000D02*
X61260000Y52800000D01*
X62260000Y53800000D02*
X62260000Y52800000D01*
X60260000Y54800000D02*
X60260000Y57400000D01*
X54060000Y54800000D02*
X54060000Y57400000D01*
X54160000Y59350000D02*
X60160000Y59350000D01*
X54260000Y52850000D02*
X60060000Y52850000D01*
%TO.C,D2*%
X55620000Y12610000D02*
X52935000Y12610000D01*
X52935000Y12610000D02*
X52935000Y10690000D01*
X52935000Y10690000D02*
X55620000Y10690000D01*
%TO.C,SW3*%
X77500000Y52800000D02*
X76500000Y52800000D01*
X77500000Y53800000D02*
X77500000Y52800000D01*
X75500000Y54800000D02*
X75500000Y57400000D01*
X69300000Y54800000D02*
X69300000Y57400000D01*
X69400000Y59350000D02*
X75400000Y59350000D01*
X69500000Y52850000D02*
X75300000Y52850000D01*
%TO.C,D3*%
X63240000Y12610000D02*
X60555000Y12610000D01*
X60555000Y12610000D02*
X60555000Y10690000D01*
X60555000Y10690000D02*
X63240000Y10690000D01*
%TO.C,Y2*%
X30860000Y74470000D02*
X32660000Y74470000D01*
X32710000Y75870000D02*
X32710000Y76970000D01*
X30810000Y75870000D02*
X30810000Y76970000D01*
%TO.C,J1*%
X116790000Y57310000D02*
X119450000Y57310000D01*
X116790000Y70070000D02*
X116790000Y57310000D01*
X119450000Y70070000D02*
X119450000Y57310000D01*
X116790000Y70070000D02*
X119450000Y70070000D01*
X116790000Y71340000D02*
X116790000Y72670000D01*
X116790000Y72670000D02*
X118120000Y72670000D01*
%TO.C,U3*%
X36740000Y68730000D02*
X42040000Y68730000D01*
X36740000Y79010000D02*
X36740000Y68730000D01*
X38390000Y79010000D02*
X36740000Y79010000D01*
X42040000Y79010000D02*
X40390000Y79010000D01*
X42040000Y68730000D02*
X42040000Y79010000D01*
X38390000Y79010000D02*
G75*
G03*
X40390000Y79010000I1000000J0D01*
G01*
%TO.C,TP7*%
X17720000Y29430000D02*
G75*
G03*
X17720000Y29430000I-1200000J0D01*
G01*
%TO.C,D1*%
X50540000Y83730000D02*
X47855000Y83730000D01*
X47855000Y83730000D02*
X47855000Y81810000D01*
X47855000Y81810000D02*
X50540000Y81810000D01*
%TO.C,TP1*%
X114240000Y31970000D02*
G75*
G03*
X114240000Y31970000I-1200000J0D01*
G01*
%TO.C,BT1*%
X16009984Y76833686D02*
X16009984Y74383686D01*
X22109984Y74383686D02*
X22109984Y76833686D01*
X21559984Y77383686D02*
X16559984Y77383686D01*
X15539984Y73683686D02*
G75*
G03*
X19575975Y50070243I3520000J-11550000D01*
G01*
X16559984Y77383686D02*
G75*
G03*
X16009984Y76833686I-1J-549999D01*
G01*
X22109984Y76833686D02*
G75*
G03*
X21559984Y77383686I-549999J1D01*
G01*
X18543993Y50070243D02*
G75*
G03*
X22579984Y73683686I515991J12063443D01*
G01*
X22109984Y74383686D02*
G75*
G03*
X22603469Y73678917I750000J0D01*
G01*
X15516499Y73678917D02*
G75*
G03*
X16009984Y74383686I-256515J704769D01*
G01*
%TO.C,SW4*%
X92740000Y52800000D02*
X91740000Y52800000D01*
X92740000Y53800000D02*
X92740000Y52800000D01*
X90740000Y54800000D02*
X90740000Y57400000D01*
X84540000Y54800000D02*
X84540000Y57400000D01*
X84640000Y59350000D02*
X90640000Y59350000D01*
X84740000Y52850000D02*
X90540000Y52850000D01*
%TO.C,SW5*%
X107980000Y52800000D02*
X106980000Y52800000D01*
X107980000Y53800000D02*
X107980000Y52800000D01*
X105980000Y54800000D02*
X105980000Y57400000D01*
X99780000Y54800000D02*
X99780000Y57400000D01*
X99880000Y59350000D02*
X105880000Y59350000D01*
X99980000Y52850000D02*
X105780000Y52850000D01*
%TO.C,TP3*%
X44390000Y84040000D02*
G75*
G03*
X44390000Y84040000I-1200000J0D01*
G01*
%TO.C,TP5*%
X29150000Y38320000D02*
G75*
G03*
X29150000Y38320000I-1200000J0D01*
G01*
%TO.C,U2*%
X119690000Y26530000D02*
X118190000Y26530000D01*
X118190000Y26260000D02*
X115360000Y26260000D01*
X118190000Y19900000D02*
X117090000Y19900000D01*
X119690000Y19630000D02*
X118190000Y19630000D01*
X118190000Y26530000D02*
X118190000Y26260000D01*
X118190000Y19630000D02*
X118190000Y19900000D01*
D12*
%TO.C,DS1*%
X69985000Y23015000D02*
G75*
G03*
X69985000Y23015000I-125000J0D01*
G01*
D10*
X102705000Y23615000D02*
X52255000Y23615000D01*
X102705000Y23615000D02*
X102705000Y42865000D01*
X102705000Y42865000D02*
X52255000Y42865000D01*
X52255000Y23615000D02*
X52255000Y42865000D01*
D11*
%TO.C,J3*%
X99010000Y80290000D02*
X100340000Y80290000D01*
X99010000Y78960000D02*
X99010000Y80290000D01*
X101610000Y80290000D02*
X104210000Y80290000D01*
X101610000Y77690000D02*
X101610000Y80290000D01*
X99010000Y77690000D02*
X101610000Y77690000D01*
X104210000Y80290000D02*
X104210000Y72550000D01*
X99010000Y77690000D02*
X99010000Y72550000D01*
X99010000Y72550000D02*
X104210000Y72550000D01*
%TO.C,D6*%
X86100000Y12610000D02*
X83415000Y12610000D01*
X83415000Y12610000D02*
X83415000Y10690000D01*
X83415000Y10690000D02*
X86100000Y10690000D01*
%TO.C,D4*%
X70860000Y12610000D02*
X68175000Y12610000D01*
X68175000Y12610000D02*
X68175000Y10690000D01*
X68175000Y10690000D02*
X70860000Y10690000D01*
%TO.C,U1*%
X57110000Y79080000D02*
X57110000Y77430000D01*
X92790000Y79080000D02*
X57110000Y79080000D01*
X92790000Y73780000D02*
X92790000Y79080000D01*
X57110000Y73780000D02*
X92790000Y73780000D01*
X57110000Y75430000D02*
X57110000Y73780000D01*
X57110000Y75430000D02*
G75*
G03*
X57110000Y77430000I0J1000000D01*
G01*
%TD*%
%LPC*%
D13*
%TO.C,Y1*%
X81270000Y67530000D03*
X78770000Y67530000D03*
%TD*%
D14*
%TO.C,H4*%
X135000000Y5000000D03*
%TD*%
D15*
%TO.C,D7*%
X91782500Y11650000D03*
X93657500Y11650000D03*
%TD*%
%TO.C,D5*%
X76542500Y11650000D03*
X78417500Y11650000D03*
%TD*%
D16*
%TO.C,U4*%
X35580000Y49755000D03*
D17*
X35580000Y47215000D03*
X35580000Y44675000D03*
X35580000Y42135000D03*
X35580000Y39595000D03*
X35580000Y37055000D03*
X35580000Y34515000D03*
X35580000Y31975000D03*
X35580000Y29435000D03*
X35580000Y26895000D03*
X35580000Y24355000D03*
X35580000Y21815000D03*
X43200000Y21815000D03*
X43200000Y24355000D03*
X43200000Y26895000D03*
X43200000Y29435000D03*
X43200000Y31975000D03*
X43200000Y34515000D03*
X43200000Y37055000D03*
X43200000Y39595000D03*
X43200000Y42135000D03*
X43200000Y44675000D03*
X43200000Y47215000D03*
X43200000Y49755000D03*
%TD*%
D18*
%TO.C,TP2*%
X44460000Y59910000D03*
%TD*%
%TO.C,TP6*%
X78750000Y63720000D03*
%TD*%
D19*
%TO.C,C9*%
X46785000Y40225000D03*
X48485000Y40225000D03*
%TD*%
D18*
%TO.C,TP4*%
X24140000Y84040000D03*
%TD*%
D20*
%TO.C,SW1*%
X132280000Y65970000D03*
X124280000Y65970000D03*
X132280000Y61470000D03*
X124280000Y61470000D03*
%TD*%
D19*
%TO.C,C2*%
X75790000Y84040000D03*
X74090000Y84040000D03*
%TD*%
D15*
%TO.C,D8*%
X99402500Y11650000D03*
X101277500Y11650000D03*
%TD*%
D20*
%TO.C,SW2*%
X53160000Y53850000D03*
X61160000Y53850000D03*
X53160000Y58350000D03*
X61160000Y58350000D03*
%TD*%
D15*
%TO.C,D2*%
X53682500Y11650000D03*
X55557500Y11650000D03*
%TD*%
D20*
%TO.C,SW3*%
X68400000Y53850000D03*
X76400000Y53850000D03*
X68400000Y58350000D03*
X76400000Y58350000D03*
%TD*%
D15*
%TO.C,D3*%
X61302500Y11650000D03*
X63177500Y11650000D03*
%TD*%
D19*
%TO.C,C4*%
X117270000Y29430000D03*
X118970000Y29430000D03*
%TD*%
%TO.C,R2*%
X56310000Y70070000D03*
X58010000Y70070000D03*
%TD*%
D21*
%TO.C,Y2*%
X31760000Y75170000D03*
X31760000Y77670000D03*
%TD*%
D19*
%TO.C,R3*%
X112190000Y73880000D03*
X113890000Y73880000D03*
%TD*%
D22*
%TO.C,J1*%
X118120000Y58640000D03*
X118120000Y61180000D03*
X118120000Y63720000D03*
X118120000Y66260000D03*
X118120000Y68800000D03*
D23*
X118120000Y71340000D03*
%TD*%
D19*
%TO.C,C5*%
X84250000Y67530000D03*
X85950000Y67530000D03*
%TD*%
%TO.C,R4*%
X112190000Y68800000D03*
X113890000Y68800000D03*
%TD*%
D16*
%TO.C,U3*%
X35580000Y77680000D03*
D17*
X35580000Y75140000D03*
X35580000Y72600000D03*
X35580000Y70060000D03*
X43200000Y70060000D03*
X43200000Y72600000D03*
X43200000Y75140000D03*
X43200000Y77680000D03*
%TD*%
D19*
%TO.C,C1*%
X117270000Y16730000D03*
X118970000Y16730000D03*
%TD*%
D18*
%TO.C,TP7*%
X16520000Y29430000D03*
%TD*%
D19*
%TO.C,C6*%
X124890000Y56100000D03*
X126590000Y56100000D03*
%TD*%
D15*
%TO.C,D1*%
X48602500Y82770000D03*
X50477500Y82770000D03*
%TD*%
D18*
%TO.C,TP1*%
X113040000Y31970000D03*
%TD*%
D19*
%TO.C,C7*%
X66470000Y67530000D03*
X68170000Y67530000D03*
%TD*%
D14*
%TO.C,H2*%
X135000000Y85000000D03*
%TD*%
D24*
%TO.C,BT1*%
X19059984Y75333686D03*
D25*
X19059984Y54843686D03*
%TD*%
D19*
%TO.C,R1*%
X51660000Y75150000D03*
X49960000Y75150000D03*
%TD*%
D14*
%TO.C,H3*%
X5000000Y5000000D03*
%TD*%
D20*
%TO.C,SW4*%
X83640000Y53850000D03*
X91640000Y53850000D03*
X83640000Y58350000D03*
X91640000Y58350000D03*
%TD*%
D19*
%TO.C,C8*%
X46570000Y37050000D03*
X48270000Y37050000D03*
%TD*%
D20*
%TO.C,SW5*%
X98880000Y53850000D03*
X106880000Y53850000D03*
X98880000Y58350000D03*
X106880000Y58350000D03*
%TD*%
D19*
%TO.C,R10*%
X48270000Y34510000D03*
X46570000Y34510000D03*
%TD*%
D14*
%TO.C,H1*%
X5000000Y85000000D03*
%TD*%
D19*
%TO.C,R13*%
X63090000Y82770000D03*
X61390000Y82770000D03*
%TD*%
%TO.C,R9*%
X66470000Y62450000D03*
X68170000Y62450000D03*
%TD*%
%TO.C,C3*%
X74090000Y67530000D03*
X75790000Y67530000D03*
%TD*%
D18*
%TO.C,TP3*%
X43190000Y84040000D03*
%TD*%
D19*
%TO.C,R12*%
X96960000Y68800000D03*
X95260000Y68800000D03*
%TD*%
D18*
%TO.C,TP5*%
X27950000Y38320000D03*
%TD*%
D26*
%TO.C,U2*%
X116460000Y25360000D03*
D27*
X122760000Y23080000D03*
D26*
X116460000Y20800000D03*
%TD*%
D19*
%TO.C,R5*%
X52500000Y62450000D03*
X54200000Y62450000D03*
%TD*%
D28*
%TO.C,DS1*%
X69860000Y25620000D03*
D29*
X72400000Y25620000D03*
X74940000Y25620000D03*
X77480000Y25620000D03*
X80020000Y25620000D03*
X82560000Y25620000D03*
X85100000Y25620000D03*
X85100000Y40860000D03*
X82560000Y40860000D03*
X80020000Y40860000D03*
X77480000Y40860000D03*
X74940000Y40860000D03*
X72400000Y40860000D03*
X69860000Y40860000D03*
%TD*%
D23*
%TO.C,J3*%
X100340000Y78960000D03*
D22*
X102880000Y78960000D03*
X100340000Y76420000D03*
X102880000Y76420000D03*
X100340000Y73880000D03*
X102880000Y73880000D03*
%TD*%
D19*
%TO.C,R14*%
X58010000Y82770000D03*
X56310000Y82770000D03*
%TD*%
%TO.C,R11*%
X82560000Y62450000D03*
X84260000Y62450000D03*
%TD*%
D15*
%TO.C,D6*%
X84162500Y11650000D03*
X86037500Y11650000D03*
%TD*%
%TO.C,D4*%
X68922500Y11650000D03*
X70797500Y11650000D03*
%TD*%
D16*
%TO.C,U1*%
X58440000Y72620000D03*
D17*
X60980000Y72620000D03*
X63520000Y72620000D03*
X66060000Y72620000D03*
X68600000Y72620000D03*
X71140000Y72620000D03*
X73680000Y72620000D03*
X76220000Y72620000D03*
X78760000Y72620000D03*
X81300000Y72620000D03*
X83840000Y72620000D03*
X86380000Y72620000D03*
X88920000Y72620000D03*
X91460000Y72620000D03*
X91460000Y80240000D03*
X88920000Y80240000D03*
X86380000Y80240000D03*
X83840000Y80240000D03*
X81300000Y80240000D03*
X78760000Y80240000D03*
X76220000Y80240000D03*
X73680000Y80240000D03*
X71140000Y80240000D03*
X68600000Y80240000D03*
X66060000Y80240000D03*
X63520000Y80240000D03*
X60980000Y80240000D03*
X58440000Y80240000D03*
%TD*%
D30*
%TO.C,J2*%
X119080000Y48480000D03*
D31*
X116780000Y43180000D03*
X113080000Y45680000D03*
%TD*%
M02*
