%TF.GenerationSoftware,KiCad,Pcbnew,6.0.6-3a73a75311~116~ubuntu20.04.1*%
%TF.CreationDate,2022-07-22T21:09:37-04:00*%
%TF.ProjectId,first_project,66697273-745f-4707-926f-6a6563742e6b,rev?*%
%TF.SameCoordinates,PX4c4b400PY8a48640*%
%TF.FileFunction,Legend,Bot*%
%TF.FilePolarity,Positive*%
%FSLAX46Y46*%
G04 Gerber Fmt 4.6, Leading zero omitted, Abs format (unit mm)*
G04 Created by KiCad (PCBNEW 6.0.6-3a73a75311~116~ubuntu20.04.1) date 2022-07-22 21:09:37*
%MOMM*%
%LPD*%
G01*
G04 APERTURE LIST*
G04 Aperture macros list*
%AMRoundRect*
0 Rectangle with rounded corners*
0 $1 Rounding radius*
0 $2 $3 $4 $5 $6 $7 $8 $9 X,Y pos of 4 corners*
0 Add a 4 corners polygon primitive as box body*
4,1,4,$2,$3,$4,$5,$6,$7,$8,$9,$2,$3,0*
0 Add four circle primitives for the rounded corners*
1,1,$1+$1,$2,$3*
1,1,$1+$1,$4,$5*
1,1,$1+$1,$6,$7*
1,1,$1+$1,$8,$9*
0 Add four rect primitives between the rounded corners*
20,1,$1+$1,$2,$3,$4,$5,0*
20,1,$1+$1,$4,$5,$6,$7,0*
20,1,$1+$1,$6,$7,$8,$9,0*
20,1,$1+$1,$8,$9,$2,$3,0*%
G04 Aperture macros list end*
%ADD10C,0.150000*%
%ADD11C,0.120000*%
%ADD12C,3.200000*%
%ADD13R,1.600000X1.600000*%
%ADD14O,1.600000X1.600000*%
%ADD15C,2.000000*%
%ADD16O,1.700000X1.700000*%
%ADD17R,1.700000X1.700000*%
%ADD18R,3.000000X3.000000*%
%ADD19C,3.000000*%
%ADD20R,1.400000X1.400000*%
%ADD21C,1.400000*%
%ADD22RoundRect,0.500000X0.500000X-1.750000X0.500000X1.750000X-0.500000X1.750000X-0.500000X-1.750000X0*%
%ADD23RoundRect,0.500000X1.500000X0.500000X-1.500000X0.500000X-1.500000X-0.500000X1.500000X-0.500000X0*%
G04 APERTURE END LIST*
D10*
%TO.C,J2*%
X116913333Y53027620D02*
X117246666Y53503810D01*
X117484761Y53027620D02*
X117484761Y54027620D01*
X117103809Y54027620D01*
X117008571Y53980000D01*
X116960952Y53932381D01*
X116913333Y53837143D01*
X116913333Y53694286D01*
X116960952Y53599048D01*
X117008571Y53551429D01*
X117103809Y53503810D01*
X117484761Y53503810D01*
X116484761Y53551429D02*
X116151428Y53551429D01*
X116008571Y53027620D02*
X116484761Y53027620D01*
X116484761Y54027620D01*
X116008571Y54027620D01*
X115246666Y53551429D02*
X115580000Y53551429D01*
X115580000Y53027620D02*
X115580000Y54027620D01*
X115103809Y54027620D01*
X114580000Y54027620D02*
X114580000Y53789524D01*
X114818095Y53884762D02*
X114580000Y53789524D01*
X114341904Y53884762D01*
X114722857Y53599048D02*
X114580000Y53789524D01*
X114437142Y53599048D01*
X113818095Y54027620D02*
X113818095Y53789524D01*
X114056190Y53884762D02*
X113818095Y53789524D01*
X113580000Y53884762D01*
X113960952Y53599048D02*
X113818095Y53789524D01*
X113675238Y53599048D01*
D11*
X120080000Y52680000D02*
X111080000Y52680000D01*
X111080000Y41980000D02*
X111080000Y44730000D01*
X120080000Y41980000D02*
X120080000Y46230000D01*
X111080000Y52680000D02*
X111080000Y46730000D01*
X120080000Y41980000D02*
X111080000Y41980000D01*
X120080000Y52680000D02*
X120080000Y50730000D01*
X115580000Y45280000D02*
G75*
G03*
X117842742Y46217258I2J3199997D01*
G01*
X117780000Y50780000D02*
G75*
G03*
X112713755Y47096295I-2200000J-2300000D01*
G01*
%TD*%
%LPC*%
D12*
%TO.C,H4*%
X135000000Y5000000D03*
%TD*%
D13*
%TO.C,U4*%
X35580000Y49755000D03*
D14*
X35580000Y47215000D03*
X35580000Y44675000D03*
X35580000Y42135000D03*
X35580000Y39595000D03*
X35580000Y37055000D03*
X35580000Y34515000D03*
X35580000Y31975000D03*
X35580000Y29435000D03*
X35580000Y26895000D03*
X35580000Y24355000D03*
X35580000Y21815000D03*
X43200000Y21815000D03*
X43200000Y24355000D03*
X43200000Y26895000D03*
X43200000Y29435000D03*
X43200000Y31975000D03*
X43200000Y34515000D03*
X43200000Y37055000D03*
X43200000Y39595000D03*
X43200000Y42135000D03*
X43200000Y44675000D03*
X43200000Y47215000D03*
X43200000Y49755000D03*
%TD*%
D15*
%TO.C,TP2*%
X43190000Y62450000D03*
%TD*%
%TO.C,TP6*%
X36840000Y62450000D03*
%TD*%
%TO.C,TP4*%
X24140000Y81500000D03*
%TD*%
D16*
%TO.C,J1*%
X118120000Y58640000D03*
X118120000Y61180000D03*
X118120000Y63720000D03*
X118120000Y66260000D03*
X118120000Y68800000D03*
D17*
X118120000Y71340000D03*
%TD*%
D13*
%TO.C,U3*%
X35580000Y77680000D03*
D14*
X35580000Y75140000D03*
X35580000Y72600000D03*
X35580000Y70060000D03*
X43200000Y70060000D03*
X43200000Y72600000D03*
X43200000Y75140000D03*
X43200000Y77680000D03*
%TD*%
D15*
%TO.C,TP7*%
X24140000Y23080000D03*
%TD*%
%TO.C,TP1*%
X113040000Y31970000D03*
%TD*%
D12*
%TO.C,H2*%
X135000000Y85000000D03*
%TD*%
D18*
%TO.C,BT1*%
X19059984Y75333686D03*
D19*
X19059984Y54843686D03*
%TD*%
D12*
%TO.C,H3*%
X5000000Y5000000D03*
%TD*%
%TO.C,H1*%
X5000000Y85000000D03*
%TD*%
D15*
%TO.C,TP3*%
X43190000Y84040000D03*
%TD*%
%TO.C,TP5*%
X27950000Y34510000D03*
%TD*%
D20*
%TO.C,DS1*%
X69860000Y25620000D03*
D21*
X72400000Y25620000D03*
X74940000Y25620000D03*
X77480000Y25620000D03*
X80020000Y25620000D03*
X82560000Y25620000D03*
X85100000Y25620000D03*
X85100000Y40860000D03*
X82560000Y40860000D03*
X80020000Y40860000D03*
X77480000Y40860000D03*
X74940000Y40860000D03*
X72400000Y40860000D03*
X69860000Y40860000D03*
%TD*%
D17*
%TO.C,J3*%
X100340000Y78960000D03*
D16*
X102880000Y78960000D03*
X100340000Y76420000D03*
X102880000Y76420000D03*
X100340000Y73880000D03*
X102880000Y73880000D03*
%TD*%
D13*
%TO.C,U1*%
X58440000Y72620000D03*
D14*
X60980000Y72620000D03*
X63520000Y72620000D03*
X66060000Y72620000D03*
X68600000Y72620000D03*
X71140000Y72620000D03*
X73680000Y72620000D03*
X76220000Y72620000D03*
X78760000Y72620000D03*
X81300000Y72620000D03*
X83840000Y72620000D03*
X86380000Y72620000D03*
X88920000Y72620000D03*
X91460000Y72620000D03*
X91460000Y80240000D03*
X88920000Y80240000D03*
X86380000Y80240000D03*
X83840000Y80240000D03*
X81300000Y80240000D03*
X78760000Y80240000D03*
X76220000Y80240000D03*
X73680000Y80240000D03*
X71140000Y80240000D03*
X68600000Y80240000D03*
X66060000Y80240000D03*
X63520000Y80240000D03*
X60980000Y80240000D03*
X58440000Y80240000D03*
%TD*%
D22*
%TO.C,J2*%
X119080000Y48480000D03*
D23*
X116780000Y43180000D03*
X113080000Y45680000D03*
%TD*%
M02*
