%TF.GenerationSoftware,KiCad,Pcbnew,6.0.6-3a73a75311~116~ubuntu20.04.1*%
%TF.CreationDate,2022-07-18T01:41:21-04:00*%
%TF.ProjectId,first_project,66697273-745f-4707-926f-6a6563742e6b,rev?*%
%TF.SameCoordinates,PX4c4b400PY8a48640*%
%TF.FileFunction,Paste,Top*%
%TF.FilePolarity,Positive*%
%FSLAX46Y46*%
G04 Gerber Fmt 4.6, Leading zero omitted, Abs format (unit mm)*
G04 Created by KiCad (PCBNEW 6.0.6-3a73a75311~116~ubuntu20.04.1) date 2022-07-18 01:41:21*
%MOMM*%
%LPD*%
G01*
G04 APERTURE LIST*
G04 Aperture macros list*
%AMRoundRect*
0 Rectangle with rounded corners*
0 $1 Rounding radius*
0 $2 $3 $4 $5 $6 $7 $8 $9 X,Y pos of 4 corners*
0 Add a 4 corners polygon primitive as box body*
4,1,4,$2,$3,$4,$5,$6,$7,$8,$9,$2,$3,0*
0 Add four circle primitives for the rounded corners*
1,1,$1+$1,$2,$3*
1,1,$1+$1,$4,$5*
1,1,$1+$1,$6,$7*
1,1,$1+$1,$8,$9*
0 Add four rect primitives between the rounded corners*
20,1,$1+$1,$2,$3,$4,$5,0*
20,1,$1+$1,$4,$5,$6,$7,0*
20,1,$1+$1,$6,$7,$8,$9,0*
20,1,$1+$1,$8,$9,$2,$3,0*%
G04 Aperture macros list end*
%ADD10R,1.000000X1.800000*%
%ADD11RoundRect,0.243750X-0.243750X-0.456250X0.243750X-0.456250X0.243750X0.456250X-0.243750X0.456250X0*%
%ADD12R,1.150000X1.400000*%
%ADD13R,1.600000X1.400000*%
%ADD14R,1.800000X1.000000*%
%ADD15R,3.050000X2.750000*%
%ADD16R,2.200000X1.200000*%
G04 APERTURE END LIST*
D10*
%TO.C,Y1*%
X81270000Y67530000D03*
X78770000Y67530000D03*
%TD*%
D11*
%TO.C,D7*%
X91782500Y11650000D03*
X93657500Y11650000D03*
%TD*%
%TO.C,D5*%
X76542500Y11650000D03*
X78417500Y11650000D03*
%TD*%
D12*
%TO.C,C9*%
X46785000Y40225000D03*
X48485000Y40225000D03*
%TD*%
D13*
%TO.C,SW1*%
X124280000Y65970000D03*
X132280000Y65970000D03*
X124280000Y61470000D03*
X132280000Y61470000D03*
%TD*%
D12*
%TO.C,C2*%
X75790000Y84040000D03*
X74090000Y84040000D03*
%TD*%
D11*
%TO.C,D8*%
X99402500Y11650000D03*
X101277500Y11650000D03*
%TD*%
D13*
%TO.C,SW2*%
X61160000Y53850000D03*
X53160000Y53850000D03*
X61160000Y58350000D03*
X53160000Y58350000D03*
%TD*%
D11*
%TO.C,D2*%
X53682500Y11650000D03*
X55557500Y11650000D03*
%TD*%
D13*
%TO.C,SW3*%
X76400000Y53850000D03*
X68400000Y53850000D03*
X76400000Y58350000D03*
X68400000Y58350000D03*
%TD*%
D11*
%TO.C,D3*%
X61302500Y11650000D03*
X63177500Y11650000D03*
%TD*%
D12*
%TO.C,C4*%
X117270000Y29430000D03*
X118970000Y29430000D03*
%TD*%
%TO.C,R2*%
X56310000Y70070000D03*
X58010000Y70070000D03*
%TD*%
D14*
%TO.C,Y2*%
X31760000Y75170000D03*
X31760000Y77670000D03*
%TD*%
D12*
%TO.C,R3*%
X112190000Y73880000D03*
X113890000Y73880000D03*
%TD*%
%TO.C,C5*%
X84250000Y67530000D03*
X85950000Y67530000D03*
%TD*%
%TO.C,R4*%
X112190000Y68800000D03*
X113890000Y68800000D03*
%TD*%
%TO.C,C1*%
X117270000Y16730000D03*
X118970000Y16730000D03*
%TD*%
%TO.C,C6*%
X124890000Y56100000D03*
X126590000Y56100000D03*
%TD*%
D11*
%TO.C,D1*%
X48602500Y82770000D03*
X50477500Y82770000D03*
%TD*%
D12*
%TO.C,C7*%
X66470000Y67530000D03*
X68170000Y67530000D03*
%TD*%
%TO.C,R1*%
X51660000Y75150000D03*
X49960000Y75150000D03*
%TD*%
D13*
%TO.C,SW4*%
X91640000Y53850000D03*
X83640000Y53850000D03*
X91640000Y58350000D03*
X83640000Y58350000D03*
%TD*%
D12*
%TO.C,C8*%
X46570000Y37050000D03*
X48270000Y37050000D03*
%TD*%
D13*
%TO.C,SW5*%
X106880000Y53850000D03*
X98880000Y53850000D03*
X106880000Y58350000D03*
X98880000Y58350000D03*
%TD*%
D12*
%TO.C,R10*%
X48270000Y34510000D03*
X46570000Y34510000D03*
%TD*%
%TO.C,R13*%
X61390000Y82770000D03*
X63090000Y82770000D03*
%TD*%
%TO.C,R9*%
X66470000Y62450000D03*
X68170000Y62450000D03*
%TD*%
%TO.C,C3*%
X74090000Y67530000D03*
X75790000Y67530000D03*
%TD*%
%TO.C,R12*%
X96960000Y68800000D03*
X95260000Y68800000D03*
%TD*%
D15*
%TO.C,U2*%
X124435000Y21555000D03*
X121085000Y24605000D03*
X124435000Y24605000D03*
X121085000Y21555000D03*
D16*
X116460000Y25360000D03*
X116460000Y20800000D03*
%TD*%
D12*
%TO.C,R5*%
X52500000Y62450000D03*
X54200000Y62450000D03*
%TD*%
%TO.C,R14*%
X56310000Y82770000D03*
X58010000Y82770000D03*
%TD*%
%TO.C,R11*%
X82560000Y62450000D03*
X84260000Y62450000D03*
%TD*%
D11*
%TO.C,D6*%
X84162500Y11650000D03*
X86037500Y11650000D03*
%TD*%
%TO.C,D4*%
X68922500Y11650000D03*
X70797500Y11650000D03*
%TD*%
M02*
